<?xml version="1.0" encoding="UTF-8"?>
<svg xmlns="http://www.w3.org/2000/svg" height="270.5" width="797.2" xmlns:xlink="http://www.w3.org/1999/xlink">
	<path d="m184.06 27.215c0.69-1.29-19.6-14.679-47.62-19.477-24.55-4.2034-55.227-4.8972-81.377 8.923-6.545 3.459-11.469 6.782-16.021 10.23-12.4 9.395-18.765 18.621-23.902 25.933-5.4487 7.756-9.5539 19.409-11.256 24.71-2.074 6.4612-2.4909 12.686-3.4323 19.353-0.61297 4.341-0.49538 9.0363-0.27074 13.937 0.5034 10.983 2.8855 22.954 8.1084 33.935 3.9362 8.2759 9.0767 16.04 14.041 23.088 8.1171 11.525 21.45 18.979 29.249 22.994 6.1191 3.1501 13.711 6.5638 26.642 8.6919 14.667 2.4138 36.306 2.3609 70.953-3.0595 9.5873-1.4999 20.078-4.6497 31.811-7.0669 0.97585-0.20105 1.5806-0.51983 2.3551-0.72125 0.72-0.18726 1.3608-0.0733 1.3354-0.60327-0.73358-15.354-0.46645-32.558-0.15874-40.282 0.0468-1.1751 0.3287-4.8103 0.34184-6.3476 0.0117-1.3715 0.72733-1.207 1.4542-1.8405l7.1721-7.0697-56.148-0.81967-19.672 11.066 39.037-1.6394v43.34s-15.836 6.6001-36.986 6.1476c-15.56-0.33295-34.273-3.9239-52.359-17.521-28.383-21.338-38.337-50.889-38.5-72.226-0.08233-10.747-0.36485-18.971 0.48779-22.447 0.751-3.061 1.9606-10.495 5.2018-18.535 4.3956-10.902 11.833-22.248 25.53-31.577 8.4002-5.7212 19.693-11.028 32.998-12.183 15.31-1.3299 26.129 0.39919 35.173 3.9128 22.301 8.6644 26.768 15.943 29.991 18.474 0.15872 0.12464 0.87662 0.65627 0.61368 1.0368-0.31511 0.45606-0.35409 0.95639-0.50504 1.2292-1.4188 2.5645-5.4365 9.2606-5.4365 9.2606l8.5041-0.92214 22.643-21.926z" fill="#3874a8"/>
	<g id="o">
		<path d="m270.91 65.375c-0.67856 0.000999-1.3137 0.01588-1.9062 0.03125-3.1603 0.082-5.0312 0.34375-5.0312 0.34375 1.6186-0.37012-22.9 2.5113-40.625 20h15.125c7.9525-9.5454 18.481-10.286 17.312-10.156 0 0 3.9917-1.265 9.8125-1.25 7.4289 0.01909 17.979 2.0749 26.875 11.406h28.812c-1.78-2-3.63-3.808-5.54-5.438-15.25-13.038-34.67-14.952-44.84-14.937z" fill="#e93a3e"/>
		<path d="m223.91 85.188c-5.4373 5.2288-10.573 12.521-13.882 20.754l20.433-0.0159c1.2287-9.2278 4.605-16.337 8.449-20.738zm68.031 0c4.5491 4.5904 8.9308 11.786 12.068 20.762l28.969-0.0767c-3.022-8.2214-7.442-15.466-12.194-20.685z" fill="#f38e4b"/>
		<path d="m205.88 126.25c-0.20612 4.0206-0.13585 8.286 0.3125 12.844 0.44194 4.4926 1.2919 8.5423 2.4688 12.25h29.125c-2.0592-5.1809-3.8843-11.119-5.375-17.969-0.5402-2.4821-0.96376-4.8503-1.3125-7.125h-25.219zm102.62 0c1.3849 10.148 1.4514 18.407 0.65625 25.094h23.688c3.082-7.0517 4.945-15.192 4.3438-25.094h-28.688z" fill="#009e61"/>
		<path d="m208.38 150.31c2.7575 9.3156 7.5362 16.404 13.094 22.031h29.219c-4.912-5.0754-9.5348-12.183-13.312-22.031h-29zm100.91 0c-1.0949 10.594-4.342 17.468-8.0938 22.031h17.562c2.4939-2.5716 4.8399-5.3945 6.9688-8.5 2.8308-4.1295 5.5018-8.5521 7.5625-13.531h-24z" fill="#3874a8"/>
		<path d="m221.47 172.34c1.6272 1.6476 3.3036 3.1713 5.0312 4.5938 20.463 16.848 48.562 16.562 48.562 16.562 8.4504 0.40015 28.667-5.668 43.688-21.156h-17.562c-5.4899 6.6773-12.082 8.4564-14.688 9.7812-5.0107 2.5476-21.59 4.9148-35.812-9.7812h-29.219z" fill="#6d4087"/>
		<path fill="#fbec6e" d="m210.06 105.84c-2.4716 6.3624-4.0106 13.727-4.25 22.188h25.562c-1.4945-8.7718-1.645-16.091-0.90625-22.188h-20.406zm93.906 0c1.3651 4.0178 2.5278 8.5206 3.4375 13.594 0.5427 3.0265 0.97326 5.8631 1.3125 8.5938h28.562c-0.0815-2.6033-0.32552-5.3218-0.78125-8.1875-0.81534-5.1269-2.022-9.7703-3.5312-14h-29z"/>
	</g>
	<use xlink:href="#o" transform="translate(146.95)" height="270.50366" width="797.20233" y="0" x="0"/>
	<g>
		<path d="m559.85 68.524c-2.3905-0.00089-7.9997 0.13398-14.688 1.3438-15.807 2.8594-37.66 13.295-43.844 35.031-9.5633 33.617 15.062 46.969 15.062 46.969s8.6256 5.0683 12.188 6.0625c10.705 2.988 22.094 1.5938 22.094 1.5938s-4.5411 15.035 4.5625 25.656c2.1735 2.5357 0.59375 2.625 0.59375 2.625s-39.788-1.0273-58.625 18.969-8.625 38.406-8.625 38.406 9.87 24.065 52.469 25.281c42.788 1.2218 69.251-24.121 71.562-43.25 1.1618-9.615-0.15199-18.622-4.9688-26.5-4.6848-7.6618-12.735-14.258-20.594-20.688-4.8831-3.9953-8.2797-6.0465-10.469-8.3438-2.0681-2.1703-2.417-4.9654-2.3438-7.0625 0.10223-2.9286 1.6453-6.5201 6.7812-12.469 9.3697-10.852 11.745-9.5013 17.406-17.625 1.6972-2.4354 2.9456-5.9885 4.6875-11.281 1.0494-3.1886 0.87493-6.489 0.875-9.5625 0.00016-6.645-1.5956-12.975-4.25-18.313-4.9329-9.9185-13.4-16.357-13.562-16.844h14.844l16.812-9.8438-56.719-0.15625s-0.45317 0.0003-1.25 0zm-12.188 9.2188c8.6515 0.0594 21.649 4.5413 29.438 27.906 13.365 40.095-14.625 46.219-14.625 46.219s-32.073 4.939-37.969-30.719c-6.0058-36.324 8.6209-38.288 14.344-41.875 0 0 3.6216-1.5669 8.8125-1.5312zm17.719 118.12s25.536 15.652 27.938 27.125c2.6906 12.854 2.8717 22.216-16.625 32.469-5.7555 3.0266-15.857 3.3791-22.219 3.4062-15.636 0.0667-27.445-5.9518-33.281-8.9688-3.033-1.5679-19.878-20.484-7.4062-37.406 3.1372-4.2566 6.6135-6.1437 9.8438-8.3125 6.8744-4.6156 13.622-6.7656 26.344-7.875 4.2312-0.36901 9.8696-0.0583 15.406-0.4375z" fill="#3874a8"/>
		<path d="m614.91 9.6592 19.93-9.6592 37.82 0.20552s-10.07 4.9323-10.892 12.536c-0.82206 7.604 0 156.81 0 156.81 0.21047 3.9048-1.5232 8.5288 9.0426 9.5564 13.193 1.2831 15.414 1.5414 15.414 1.5414l-9.2481 6.9875-49.323-0.41103 5.3434-5.7544s2.8772-2.2606 2.6717-11.714c-0.2-9.47-0.3-160.01-0.3-160.01l-20.45-0.1008z" fill="#009e61"/>
		<path d="m755.36 65.188c-0.94278 0.0042-5.2295-0.476-6.2496-0.39754-36.02 2.7708-52.646 23.173-58.188 41.812-5.5416 18.64-1.0273 45.847 6.7812 57.938 7.8086 12.091 24.18 27.184 50.125 27.688 25.945 0.50378 39.824-11.855 48.375-20.406 0.56675-0.56675 1-1.75 1-1.75s-16.359 9.2455-33 9.0625c-18.018-0.19817-46.182-17.687-53.125-54.406 6.7694-0.53539 12.437-0.88303 19.875-0.75l63.25-25.938s-1.5323-8.2361-7.9375-16.344c-4.0024-5.0662-10.52-9.9258-17.875-13.188-4.9015-2.1737-6.6841-2.091-13.032-3.3212zm-16.156 8.5712c0.83872-0.01717 1.6643 0.0062 2.4688 0.03125 4.9858 0.15552 9.108 1.17 12.781 3.5312 2.4604 1.5816 4.445 3.912 7.375 6.4688 5.6648 4.9433 5.5312 11.344 5.5312 11.344-0.10026 1.4457 1.1894 3.3404-2.0625 5.3438-8.2307 5.0704-25.683 11.756-40.25 17.75-4.8253 1.9853-9.9003 3.6715-13.469 5.5 0 0-2.9721-16.998 2-31.031 2.6573-7.5 8.3786-13.99 16.25-16.969 4.0471-1.5313 6.8588-1.9173 9.375-1.9688z" fill="#e93a3e"/>
	</g>
</svg>
